<svg xmlns="http://www.w3.org/2000/svg" width="487.13885498046875" height="341.8418884277344" viewBox="-184.38626098632812 -160.78701782226562 487.13885498046875 341.8418884277344"><title>Neo4j Graph Visualization</title><desc>Created using Neo4j (http://www.neo4j.com/)</desc><g class="layer relationships"><g class="relationship" transform="translate(193.50820533142257 133.6715149227585) rotate(184.44465013019584)"><path class="outline" fill="#424242" stroke="none" d="M 25 1 L 46.58613936320472 1 L 46.58613936320472 -1 L 25 -1 Z M 111.74238936320472 1 L 133.32852872640944 1 L 133.32852872640944 4 L 141.32852872640944 0 L 133.32852872640944 -4 L 133.32852872640944 -1 L 111.74238936320472 -1 Z"/><text text-anchor="middle" pointer-events="none" font-size="8px" fill="#424242" x="79.16426436320472" y="3" transform="rotate(180 79.16426436320472 0)" font-family="sans-serif">Compound_Gene</text></g><g class="relationship" transform="translate(132.6587188135125 54.327658508963616) rotate(507.6652320495379)"><path class="outline" fill="#424242" stroke="none" d="M 25 1 L 29.32733311277223 1 L 29.32733311277223 -1 L 25 -1 Z M 86.91717686277224 1 L 91.24450997554446 1 L 91.24450997554446 4 L 99.24450997554446 0 L 91.24450997554446 -4 L 91.24450997554446 -1 L 86.91717686277224 -1 Z"/><text text-anchor="middle" pointer-events="none" font-size="8px" fill="#424242" x="58.12225498777223" y="3" transform="rotate(180 58.12225498777223 0)" font-family="sans-serif">Anatomy_Gene</text></g><g class="relationship" transform="translate(193.50820533142257 133.6715149227585) rotate(297.2075296524853)"><path class="outline" fill="#424242" stroke="none" d="M 25 1 L 26.47577118458984 1 L 26.47577118458984 -1 L 25 -1 Z M 75.61248993458983 1 L 77.08826111917968 1 L 77.08826111917968 4 L 85.08826111917968 0 L 77.08826111917968 -4 L 77.08826111917968 -1 L 75.61248993458983 -1 Z"/><text text-anchor="middle" pointer-events="none" font-size="8px" fill="#424242" x="51.04413055958984" y="3" font-family="sans-serif">Compound…</text></g><g class="relationship" transform="translate(197.7868177238936 -49.04032684382281) rotate(421.494535944589)"><path class="outline" fill="#424242" stroke="none" d="M 25 1 L 26.357001534698384 1 L 26.357001534698384 -1 L 25 -1 Z M 62.146064034698384 1 L 63.50306556939677 1 L 63.50306556939677 4 L 71.50306556939677 0 L 63.50306556939677 -4 L 63.50306556939677 -1 L 62.146064034698384 -1 Z"/><text text-anchor="middle" pointer-events="none" font-size="8px" fill="#424242" x="44.251532784698384" y="3" font-family="sans-serif">Compo…</text></g><g class="relationship" transform="translate(132.6587188135125 54.327658508963616) rotate(350.5210054157701)"><path class="outline" fill="#424242" stroke="none" d="M 25 1 L 26.240195647899576 1 L 26.240195647899576 -1 L 25 -1 Z M 78.48238314789958 1 L 79.72257879579915 1 L 79.72257879579915 4 L 87.72257879579915 0 L 79.72257879579915 -4 L 79.72257879579915 -1 L 78.48238314789958 -1 Z"/><text text-anchor="middle" pointer-events="none" font-size="8px" fill="#424242" x="52.361289397899576" y="3" font-family="sans-serif">Anatomy_G…</text></g><g class="relationship" transform="translate(-13.600078133038723 -131.78701033784066) rotate(399.6317830095651)"><path class="outline" fill="#424242" stroke="none" d="M 25 1 L 25.031845466052673 1 L 25.031845466052673 -1 L 25 -1 Z M 78.61778296605267 1 L 78.64962843210535 1 L 78.64962843210535 4 L 86.64962843210535 0 L 78.64962843210535 -4 L 78.64962843210535 -1 L 78.61778296605267 -1 Z"/><text text-anchor="middle" pointer-events="none" font-size="8px" fill="#424242" x="51.82481421605267" y="3" font-family="sans-serif">Compound_…</text></g><g class="relationship" transform="translate(132.6587188135125 54.327658508963616) rotate(242.32050769117643)"><path class="outline" fill="#424242" stroke="none" d="M 25 1 L 32.078612303554735 1 L 32.078612303554735 -1 L 25 -1 Z M 89.66845605355473 1 L 96.74706835710947 1 L 96.74706835710947 4 L 104.74706835710947 0 L 96.74706835710947 -4 L 96.74706835710947 -1 L 89.66845605355473 -1 Z"/><text text-anchor="middle" pointer-events="none" font-size="8px" fill="#424242" x="60.873534178554735" y="3" transform="rotate(180 60.873534178554735 0)" font-family="sans-serif">Anatomy_Gene</text></g><g class="relationship" transform="translate(-13.600078133038723 -131.78701033784066) rotate(362.60177194565404)"><path class="outline" fill="#424242" stroke="none" d="M 25 1 L 41.08976627587272 1 L 41.08976627587272 -1 L 25 -1 Z M 106.24601627587272 1 L 122.33578255174544 1 L 122.33578255174544 4 L 130.33578255174544 0 L 122.33578255174544 -4 L 122.33578255174544 -1 L 106.24601627587272 -1 Z"/><text text-anchor="middle" pointer-events="none" font-size="8px" fill="#424242" x="73.66789127587272" y="3" font-family="sans-serif">Compound_Gene</text></g><g class="relationship" transform="translate(273.7525992255436 -79.64103736715083) rotate(198.83804118846132)"><path class="outline" fill="#424242" stroke="none" d="M 25 1 L 33.25076354707254 1 L 33.25076354707254 -1 L 25 -1 Z M 98.40701354707254 1 L 106.65777709414508 1 L 106.65777709414508 4 L 114.65777709414508 0 L 106.65777709414508 -4 L 106.65777709414508 -1 L 98.40701354707254 -1 Z"/><text text-anchor="middle" pointer-events="none" font-size="8px" fill="#424242" x="65.82888854707254" y="3" transform="rotate(180 65.82888854707254 0)" font-family="sans-serif">Compound_Gene</text></g><g class="relationship" transform="translate(132.6587188135125 54.327658508963616) rotate(272.85081628424757)"><path class="outline" fill="#424242" stroke="none" d="M 25 1 L 56.84770541769497 1 L 56.84770541769497 -1 L 25 -1 Z M 114.43754916769497 1 L 146.28525458538994 1 L 146.28525458538994 4 L 154.28525458538994 0 L 146.28525458538994 -4 L 146.28525458538994 -1 L 114.43754916769497 -1 Z"/><text text-anchor="middle" pointer-events="none" font-size="8px" fill="#424242" x="85.64262729269497" y="3" font-family="sans-serif">Anatomy_Gene</text></g><g class="relationship" transform="translate(-13.600078133038723 -131.78701033784066) rotate(443.67290698057536)"><path class="outline" fill="#424242" stroke="none" d="M 25 1 L 33.94679393920664 1 L 33.94679393920664 -1 L 25 -1 Z M 99.10304393920664 1 L 108.04983787841329 1 L 108.04983787841329 4 L 116.04983787841329 0 L 108.04983787841329 -4 L 108.04983787841329 -1 L 99.10304393920664 -1 Z"/><text text-anchor="middle" pointer-events="none" font-size="8px" fill="#424242" x="66.52491893920664" y="3" font-family="sans-serif">Compound_Gene</text></g><g class="relationship" transform="translate(-109.97061081268406 -105.14384649121291) rotate(405.414904024561)"><path class="outline" fill="#424242" stroke="none" d="M 25 1 L 43.136948744268224 1 L 43.136948744268224 -1 L 25 -1 Z M 108.29319874426822 1 L 126.43014748853645 1 L 126.43014748853645 4 L 134.43014748853645 0 L 126.43014748853645 -4 L 126.43014748853645 -1 L 108.29319874426822 -1 Z"/><text text-anchor="middle" pointer-events="none" font-size="8px" fill="#424242" x="75.71507374426822" y="3" font-family="sans-serif">Compound_Gene</text></g><g class="relationship" transform="translate(-155.38626080006904 -16.067238836182376) rotate(368.8408527148787)"><path class="outline" fill="#424242" stroke="none" d="M 25 1 L 43.032971575386114 1 L 43.032971575386114 -1 L 25 -1 Z M 108.18922157538611 1 L 126.22219315077223 1 L 126.22219315077223 4 L 134.22219315077223 0 L 126.22219315077223 -4 L 126.22219315077223 -1 L 108.18922157538611 -1 Z"/><text text-anchor="middle" pointer-events="none" font-size="8px" fill="#424242" x="75.61109657538611" y="3" font-family="sans-serif">Compound_Gene</text></g><g class="relationship" transform="translate(-67.29302946173587 152.05487356010954) rotate(295.7332182898201)"><path class="outline" fill="#424242" stroke="none" d="M 25 1 L 43.154961599945366 1 L 43.154961599945366 -1 L 25 -1 Z M 108.31121159994537 1 L 126.46617319989073 1 L 126.46617319989073 4 L 134.46617319989073 0 L 126.46617319989073 -4 L 126.46617319989073 -1 L 108.31121159994537 -1 Z"/><text text-anchor="middle" pointer-events="none" font-size="8px" fill="#424242" x="75.73308659994537" y="3" font-family="sans-serif">Compound_Gene</text></g><g class="relationship" transform="translate(-139.23043410082948 82.6065811584728) rotate(332.27310872694557)"><path class="outline" fill="#424242" stroke="none" d="M 25 1 L 43.16576643004525 1 L 43.16576643004525 -1 L 25 -1 Z M 108.32201643004525 1 L 126.4877828600905 1 L 126.4877828600905 4 L 134.4877828600905 0 L 126.4877828600905 -4 L 126.4877828600905 -1 L 108.32201643004525 -1 Z"/><text text-anchor="middle" pointer-events="none" font-size="8px" fill="#424242" x="75.74389143004525" y="3" font-family="sans-serif">Compound_Gene</text></g><g class="relationship" transform="translate(132.6587188135125 54.327658508963616) rotate(199.3579237648588)"><path class="outline" fill="#424242" stroke="none" d="M 25 1 L 36.478613930442265 1 L 36.478613930442265 -1 L 25 -1 Z M 94.06845768044226 1 L 105.54707161088453 1 L 105.54707161088453 4 L 113.54707161088453 0 L 105.54707161088453 -4 L 105.54707161088453 -1 L 94.06845768044226 -1 Z"/><text text-anchor="middle" pointer-events="none" font-size="8px" fill="#424242" x="65.27353580544226" y="3" transform="rotate(180 65.27353580544226 0)" font-family="sans-serif">Anatomy_Gene</text></g></g><g class="layer nodes"><g class="node" aria-label="graph-node0" transform="translate(193.50820533142257,133.6715149227585)" style="touch-action: none; -webkit-tap-highlight-color: rgba(0, 0, 0, 0);"><circle class="outline" cx="0" cy="0" r="25" fill="#e91e63" stroke="#9AA1AC" stroke-width="2px"/><text class="caption" text-anchor="middle" pointer-events="none" x="0" y="4" font-size="8px" fill="#fafafa" font-family="sans-serif"> Nortriptyline</text></g><g class="node" aria-label="graph-node9" transform="translate(27.679882548294103,120.78171929883283)" style="touch-action: none; -webkit-tap-highlight-color: rgba(0, 0, 0, 0);"><circle class="outline" cx="0" cy="0" r="25" fill="#02b3e4" stroke="#9AA1AC" stroke-width="2px"/><text class="caption" text-anchor="middle" pointer-events="none" x="0" y="4" font-size="8px" fill="#fafafa" font-family="sans-serif"> NUP85</text></g><g class="node" aria-label="graph-node5154" transform="translate(132.6587188135125,54.327658508963616)" style="touch-action: none; -webkit-tap-highlight-color: rgba(0, 0, 0, 0);"><circle class="outline" cx="0" cy="0" r="25" fill="#4caf50" stroke="#9AA1AC" stroke-width="2px"/><text class="caption" text-anchor="middle" pointer-events="none" x="0" y="4" font-size="8px" fill="#fafafa" font-family="sans-serif"> lymph node</text></g><g class="node" aria-label="graph-node11" transform="translate(243.84218847400825,35.76382688322511)" style="touch-action: none; -webkit-tap-highlight-color: rgba(0, 0, 0, 0);"><circle class="outline" cx="0" cy="0" r="25" fill="#02b3e4" stroke="#9AA1AC" stroke-width="2px"/><text class="caption" text-anchor="middle" pointer-events="none" x="0" y="4" font-size="8px" fill="#fafafa" font-family="sans-serif"> MYC</text></g><g class="node" aria-label="graph-node504" transform="translate(197.7868177238936,-49.04032684382281)" style="touch-action: none; -webkit-tap-highlight-color: rgba(0, 0, 0, 0);"><circle class="outline" cx="0" cy="0" r="25" fill="#e91e63" stroke="#9AA1AC" stroke-width="2px"/><text class="caption" text-anchor="middle" pointer-events="none" x="0" y="4" font-size="8px" fill="#fafafa" font-family="sans-serif"> Bupropion</text></g><g class="node" aria-label="graph-node1" transform="translate(-13.600078133038723,-131.78701033784066)" style="touch-action: none; -webkit-tap-highlight-color: rgba(0, 0, 0, 0);"><circle class="outline" cx="0" cy="0" r="25" fill="#e91e63" stroke="#9AA1AC" stroke-width="2px"/><text class="caption" text-anchor="middle" pointer-events="none" x="0" y="4" font-size="8px" fill="#fafafa" font-family="sans-serif"> Varenicline</text></g><g class="node" aria-label="graph-node137" transform="translate(72.38794762472757,-60.571148654442425)" style="touch-action: none; -webkit-tap-highlight-color: rgba(0, 0, 0, 0);"><circle class="outline" cx="0" cy="0" r="25" fill="#02b3e4" stroke="#9AA1AC" stroke-width="2px"/><text class="caption" text-anchor="middle" pointer-events="none" x="0" y="4" font-size="8px" fill="#fafafa" font-family="sans-serif"> UBC</text></g><g class="node" aria-label="graph-node193" transform="translate(141.57557907543068,-124.73571606779763)" style="touch-action: none; -webkit-tap-highlight-color: rgba(0, 0, 0, 0);"><circle class="outline" cx="0" cy="0" r="25" fill="#02b3e4" stroke="#9AA1AC" stroke-width="2px"/><text class="caption" text-anchor="middle" pointer-events="none" x="0" y="4" font-size="8px" fill="#fafafa" font-family="sans-serif"> SHC1</text></g><g class="node" aria-label="graph-node502" transform="translate(273.7525992255436,-79.64103736715083)" style="touch-action: none; -webkit-tap-highlight-color: rgba(0, 0, 0, 0);"><circle class="outline" cx="0" cy="0" r="25" fill="#e91e63" stroke="#9AA1AC" stroke-width="2px"/><text class="caption" text-anchor="middle" pointer-events="none" x="0" y="4" font-size="8px" fill="#fafafa" font-family="sans-serif"> Clonidine</text></g><g class="node" aria-label="graph-node416" transform="translate(1.9442212999150996,8.403686645466138)" style="touch-action: none; -webkit-tap-highlight-color: rgba(0, 0, 0, 0);"><circle class="outline" cx="0" cy="0" r="25" fill="#02b3e4" stroke="#9AA1AC" stroke-width="2px"/><text class="caption" text-anchor="middle" pointer-events="none" x="0" y="4" font-size="8px" fill="#fafafa" font-family="sans-serif"> FYN</text></g><g class="node" aria-label="graph-node4600" transform="translate(-109.97061081268406,-105.14384649121291)" style="touch-action: none; -webkit-tap-highlight-color: rgba(0, 0, 0, 0);"><circle class="outline" cx="0" cy="0" r="25" fill="#e91e63" stroke="#9AA1AC" stroke-width="2px"/><text class="caption" text-anchor="middle" pointer-events="none" x="0" y="4" font-size="8px" fill="#fafafa" font-family="sans-serif"> Bosutinib</text></g><g class="node" aria-label="graph-node3177" transform="translate(-155.38626080006904,-16.067238836182376)" style="touch-action: none; -webkit-tap-highlight-color: rgba(0, 0, 0, 0);"><circle class="outline" cx="0" cy="0" r="25" fill="#e91e63" stroke="#9AA1AC" stroke-width="2px"/><text class="caption" text-anchor="middle" pointer-events="none" x="0" y="4" font-size="8px" fill="#fafafa" font-family="sans-serif"> Sunitinib</text></g><g class="node" aria-label="graph-node4974" transform="translate(-67.29302946173587,152.05487356010954)" style="touch-action: none; -webkit-tap-highlight-color: rgba(0, 0, 0, 0);"><circle class="outline" cx="0" cy="0" r="25" fill="#e91e63" stroke="#9AA1AC" stroke-width="2px"/><text class="caption" text-anchor="middle" pointer-events="none" x="0" y="4" font-size="8px" fill="#fafafa" font-family="sans-serif"> Dasatinib</text></g><g class="node" aria-label="graph-node4388" transform="translate(-139.23043410082948,82.6065811584728)" style="touch-action: none; -webkit-tap-highlight-color: rgba(0, 0, 0, 0);"><circle class="outline" cx="0" cy="0" r="25" fill="#e91e63" stroke="#9AA1AC" stroke-width="2px"/><text class="caption" text-anchor="middle" pointer-events="none" x="0" y="4" font-size="8px" fill="#fafafa" font-family="sans-serif"> Vandetanib</text></g></g></svg>